<?xml version="1.0" encoding="UTF-8" standalone="no"?>
<!-- Created with Inkscape (http://www.inkscape.org/) -->

<svg
   xmlns:dc="http://purl.org/dc/elements/1.1/"
   xmlns:cc="http://creativecommons.org/ns#"
   xmlns:rdf="http://www.w3.org/1999/02/22-rdf-syntax-ns#"
   xmlns:svg="http://www.w3.org/2000/svg"
   xmlns="http://www.w3.org/2000/svg"
   xmlns:sodipodi="http://sodipodi.sourceforge.net/DTD/sodipodi-0.dtd"
   xmlns:inkscape="http://www.inkscape.org/namespaces/inkscape"
   width="700"
   height="700"
   id="svg3673"
   version="1.1"
   inkscape:version="0.48.4 r"
   sodipodi:docname="vespuccilogo.svg">
  <defs
     id="defs3675">
    <clipPath
       clipPathUnits="userSpaceOnUse"
       id="clipPath3560">
      <rect
         style="fill:none;stroke:#000000;stroke-width:0.80000001"
         id="rect3562"
         width="19.820974"
         height="54.114388"
         x="407.11652"
         y="-314.61862"
         clip-path="none"
         transform="scale(1,-1)" />
    </clipPath>
    <clipPath
       id="clipPath18">
      <path
         d="m 0,0 7737.7,0 0,5932.9 L 0,5932.9 0,0 z"
         inkscape:connector-curvature="0"
         id="path20" />
    </clipPath>
    <clipPath
       id="clipPath154">
      <path
         d="m 1384.83,5244.09 5280.11,0 0,-4262.453 -5280.11,0 0,4262.453 z"
         inkscape:connector-curvature="0"
         id="path156" />
    </clipPath>
    <clipPath
       id="clipPath174">
      <path
         d="m 0,0 7737.7,0 0,5932.9 L 0,5932.9 0,0 z"
         inkscape:connector-curvature="0"
         id="path176" />
    </clipPath>
  </defs>
  <sodipodi:namedview
     id="base"
     pagecolor="#ffffff"
     bordercolor="#666666"
     borderopacity="1.0"
     inkscape:pageopacity="0.0"
     inkscape:pageshadow="2"
     inkscape:zoom="0.49497475"
     inkscape:cx="126.78302"
     inkscape:cy="162.85262"
     inkscape:document-units="px"
     inkscape:current-layer="layer1"
     showgrid="false"
     inkscape:window-width="1440"
     inkscape:window-height="838"
     inkscape:window-x="-8"
     inkscape:window-y="-8"
     inkscape:window-maximized="1" />
  <metadata
     id="metadata3678">
    <rdf:RDF>
      <cc:Work
         rdf:about="">
        <dc:format>image/svg+xml</dc:format>
        <dc:type
           rdf:resource="http://purl.org/dc/dcmitype/StillImage" />
      </cc:Work>
    </rdf:RDF>
  </metadata>
  <g
     inkscape:label="Layer 1"
     inkscape:groupmode="layer"
     id="layer1"
     transform="translate(0,-352.36218)">
    <rect
       style="fill:#008000;stroke:#4daf4a;stroke-opacity:1"
       id="rect4652"
       width="720"
       height="722.85712"
       x="-5.7142854"
       y="343.79074" />
    <g
       transform="matrix(38.121243,0,0,13.708837,-15561.883,-3235.4843)"
       id="g10"
       clip-path="url(#clipPath3560)"
       style="stroke:#ff7f00;stroke-opacity:1">
      <g
         transform="scale(0.1,0.1)"
         id="g12"
         style="stroke:#ff7f00;stroke-opacity:1">
        <g
           id="g14"
           style="stroke:#ff7f00;stroke-opacity:1">
          <g
             clip-path="url(#clipPath18)"
             id="g16"
             style="stroke:#ff7f00;stroke-opacity:1">
            <g
               transform="scale(10,10)"
               id="g22"
               style="stroke:#ff7f00;stroke-opacity:1">
              <text
                 transform="matrix(1.00001,0,0,-1,186.724,71.7633)"
                 id="text24"
                 style="stroke:#ff7f00;stroke-opacity:1">
                <tspan
                   x="0 96.482262 105.60246 114.72264 197.52428 206.64447 215.76465 224.88484 302.88632 312.00653 321.12671 330.24689 408.48938 417.60959 426.72977 435.84995"
                   y="0"
                   id="tspan26"
                   style="font-size:1.65603662px;font-variant:normal;font-weight:normal;writing-mode:lr-tb;fill:#000000;fill-opacity:1;fill-rule:nonzero;stroke:#ff7f00;stroke-opacity:1;font-family:Arial Black;-inkscape-font-specification:Arial">0500100015002000</tspan>
                <tspan
                   x="-98.402687 -89.282486 -80.162285 -71.042084"
                   y="-54.961048"
                   id="tspan28"
                   style="font-size:1.65603662px;font-variant:normal;font-weight:normal;writing-mode:lr-tb;fill:#000000;fill-opacity:1;fill-rule:nonzero;stroke:#ff7f00;stroke-opacity:1;font-family:Arial Black;-inkscape-font-specification:Arial">2000</tspan>
                <tspan
                   x="-98.402687 -89.282486 -80.162285 -71.042084"
                   y="-120.4828"
                   id="tspan30"
                   style="font-size:1.65603662px;font-variant:normal;font-weight:normal;writing-mode:lr-tb;fill:#000000;fill-opacity:1;fill-rule:nonzero;stroke:#ff7f00;stroke-opacity:1;font-family:Arial Black;-inkscape-font-specification:Arial">4000</tspan>
                <tspan
                   x="-98.402687 -89.282486 -80.162285 -71.042084"
                   y="-186.00417"
                   id="tspan32"
                   style="font-size:1.65603662px;font-variant:normal;font-weight:normal;writing-mode:lr-tb;fill:#000000;fill-opacity:1;fill-rule:nonzero;stroke:#ff7f00;stroke-opacity:1;font-family:Arial Black;-inkscape-font-specification:Arial">6000</tspan>
                <tspan
                   x="-98.402687 -89.282486 -80.162285 -71.042084"
                   y="-251.52551"
                   id="tspan34"
                   style="font-size:1.65603662px;font-variant:normal;font-weight:normal;writing-mode:lr-tb;fill:#000000;fill-opacity:1;fill-rule:nonzero;stroke:#ff7f00;stroke-opacity:1;font-family:Arial Black;-inkscape-font-specification:Arial">8000</tspan>
                <tspan
                   x="-107.52302 -98.402817 -89.282623 -80.162422 -71.042221"
                   y="-317.04727"
                   id="tspan36"
                   style="font-size:1.65603662px;font-variant:normal;font-weight:normal;writing-mode:lr-tb;fill:#000000;fill-opacity:1;fill-rule:nonzero;stroke:#ff7f00;stroke-opacity:1;font-family:Arial Black;-inkscape-font-specification:Arial">10000</tspan>
                <tspan
                   x="-107.52302 -98.402817 -89.282623 -80.162422 -71.042221"
                   y="-382.56863"
                   id="tspan38"
                   style="font-size:1.65603662px;font-variant:normal;font-weight:normal;writing-mode:lr-tb;fill:#000000;fill-opacity:1;fill-rule:nonzero;stroke:#ff7f00;stroke-opacity:1;font-family:Arial Black;-inkscape-font-specification:Arial">12000</tspan>
                <tspan
                   x="-107.52302 -98.402817 -89.282623 -80.162422 -71.042221"
                   y="-448.09039"
                   id="tspan40"
                   style="font-size:1.65603662px;font-variant:normal;font-weight:normal;writing-mode:lr-tb;fill:#000000;fill-opacity:1;fill-rule:nonzero;stroke:#ff7f00;stroke-opacity:1;font-family:Arial Black;-inkscape-font-specification:Arial">14000</tspan>
              </text>
            </g>
            <g
               transform="scale(1,-0.999996)"
               id="g42"
               style="stroke:#ff7f00;stroke-opacity:1">
              <path
                 d="m 1384.82,-943.238 0,-40.801"
                 inkscape:connector-curvature="0"
                 id="path44"
                 style="fill:none;stroke:#ff7f00;stroke-width:16.8003006;stroke-linecap:round;stroke-linejoin:round;stroke-miterlimit:10;stroke-opacity:1;stroke-dasharray:none" />
            </g>
            <g
               transform="scale(1,-0.999996)"
               id="g46"
               style="stroke:#ff7f00;stroke-opacity:1">
              <path
                 d="m 1912.83,-902.437 0,-81.602"
                 inkscape:connector-curvature="0"
                 id="path48"
                 style="fill:none;stroke:#ff7f00;stroke-width:16.8003006;stroke-linecap:round;stroke-linejoin:round;stroke-miterlimit:10;stroke-opacity:1;stroke-dasharray:none" />
            </g>
            <g
               transform="scale(1,-0.999996)"
               id="g50"
               style="stroke:#ff7f00;stroke-opacity:1">
              <path
                 d="m 2440.84,-943.238 0,-40.801"
                 inkscape:connector-curvature="0"
                 id="path52"
                 style="fill:none;stroke:#ff7f00;stroke-width:16.8003006;stroke-linecap:round;stroke-linejoin:round;stroke-miterlimit:10;stroke-opacity:1;stroke-dasharray:none" />
            </g>
            <g
               transform="scale(1,-0.999996)"
               id="g54"
               style="stroke:#ff7f00;stroke-opacity:1">
              <path
                 d="m 2968.85,-902.437 0,-81.602"
                 inkscape:connector-curvature="0"
                 id="path56"
                 style="fill:none;stroke:#ff7f00;stroke-width:16.8003006;stroke-linecap:round;stroke-linejoin:round;stroke-miterlimit:10;stroke-opacity:1;stroke-dasharray:none" />
            </g>
            <g
               transform="scale(1,-0.999996)"
               id="g58"
               style="stroke:#ff7f00;stroke-opacity:1">
              <path
                 d="m 3496.86,-943.238 0,-40.801"
                 inkscape:connector-curvature="0"
                 id="path60"
                 style="fill:none;stroke:#ff7f00;stroke-width:16.8003006;stroke-linecap:round;stroke-linejoin:round;stroke-miterlimit:10;stroke-opacity:1;stroke-dasharray:none" />
            </g>
            <g
               transform="scale(1,-0.999996)"
               id="g62"
               style="stroke:#ff7f00;stroke-opacity:1">
              <path
                 d="m 4024.87,-902.437 0,-81.602"
                 inkscape:connector-curvature="0"
                 id="path64"
                 style="fill:none;stroke:#ff7f00;stroke-width:16.8003006;stroke-linecap:round;stroke-linejoin:round;stroke-miterlimit:10;stroke-opacity:1;stroke-dasharray:none" />
            </g>
            <g
               transform="scale(1,-0.999996)"
               id="g66"
               style="stroke:#ff7f00;stroke-opacity:1">
              <path
                 d="m 4550.48,-943.238 0,-40.801"
                 inkscape:connector-curvature="0"
                 id="path68"
                 style="fill:none;stroke:#ff7f00;stroke-width:16.8003006;stroke-linecap:round;stroke-linejoin:round;stroke-miterlimit:10;stroke-opacity:1;stroke-dasharray:none" />
            </g>
            <g
               transform="scale(1,-0.999996)"
               id="g70"
               style="stroke:#ff7f00;stroke-opacity:1">
              <path
                 d="m 5078.49,-902.437 0,-81.602"
                 inkscape:connector-curvature="0"
                 id="path72"
                 style="fill:none;stroke:#ff7f00;stroke-width:16.8003006;stroke-linecap:round;stroke-linejoin:round;stroke-miterlimit:10;stroke-opacity:1;stroke-dasharray:none" />
            </g>
            <g
               transform="scale(1,-0.999996)"
               id="g74"
               style="stroke:#ff7f00;stroke-opacity:1">
              <path
                 d="m 5606.49,-943.238 0,-40.801"
                 inkscape:connector-curvature="0"
                 id="path76"
                 style="fill:none;stroke:#ff7f00;stroke-width:16.8003006;stroke-linecap:round;stroke-linejoin:round;stroke-miterlimit:10;stroke-opacity:1;stroke-dasharray:none" />
            </g>
            <g
               transform="scale(1,-0.999996)"
               id="g78"
               style="stroke:#ff7f00;stroke-opacity:1">
              <path
                 d="m 6134.5,-902.437 0,-81.602"
                 inkscape:connector-curvature="0"
                 id="path80"
                 style="fill:none;stroke:#ff7f00;stroke-width:16.8003006;stroke-linecap:round;stroke-linejoin:round;stroke-miterlimit:10;stroke-opacity:1;stroke-dasharray:none" />
            </g>
            <g
               transform="scale(1,-0.999996)"
               id="g82"
               style="stroke:#ff7f00;stroke-opacity:1">
              <path
                 d="m 6662.51,-943.238 0,-40.801"
                 inkscape:connector-curvature="0"
                 id="path84"
                 style="fill:none;stroke:#ff7f00;stroke-width:16.8003006;stroke-linecap:round;stroke-linejoin:round;stroke-miterlimit:10;stroke-opacity:1;stroke-dasharray:none" />
            </g>
            <g
               transform="scale(1,-0.999996)"
               id="g86"
               style="stroke:#ff7f00;stroke-opacity:1">
              <path
                 d="m 1384.82,-984.039 5277.69,0"
                 inkscape:connector-curvature="0"
                 id="path88"
                 style="fill:none;stroke:#ff7f00;stroke-width:16.8003006;stroke-linecap:round;stroke-linejoin:round;stroke-miterlimit:10;stroke-opacity:1;stroke-dasharray:none" />
            </g>
            <g
               transform="scale(1,-0.999996)"
               id="g90"
               style="stroke:#ff7f00;stroke-opacity:1">
              <path
                 d="m 1344.02,-984.039 40.8,0"
                 inkscape:connector-curvature="0"
                 id="path92"
                 style="fill:none;stroke:#ff7f00;stroke-width:16.8003006;stroke-linecap:round;stroke-linejoin:round;stroke-miterlimit:10;stroke-opacity:1;stroke-dasharray:none" />
            </g>
            <g
               transform="scale(1,-0.999996)"
               id="g94"
               style="stroke:#ff7f00;stroke-opacity:1">
              <path
                 d="m 1303.22,-1312.84 81.6,0"
                 inkscape:connector-curvature="0"
                 id="path96"
                 style="fill:none;stroke:#ff7f00;stroke-width:16.8003006;stroke-linecap:round;stroke-linejoin:round;stroke-miterlimit:10;stroke-opacity:1;stroke-dasharray:none" />
            </g>
            <g
               transform="scale(1,-0.999996)"
               id="g98"
               style="stroke:#ff7f00;stroke-opacity:1">
              <path
                 d="m 1344.02,-1639.25 40.8,0"
                 inkscape:connector-curvature="0"
                 id="path100"
                 style="fill:none;stroke:#ff7f00;stroke-width:16.8003006;stroke-linecap:round;stroke-linejoin:round;stroke-miterlimit:10;stroke-opacity:1;stroke-dasharray:none" />
            </g>
            <g
               transform="scale(1,-0.999996)"
               id="g102"
               style="stroke:#ff7f00;stroke-opacity:1">
              <path
                 d="m 1303.22,-1968.05 81.6,0"
                 inkscape:connector-curvature="0"
                 id="path104"
                 style="fill:none;stroke:#ff7f00;stroke-width:16.8003006;stroke-linecap:round;stroke-linejoin:round;stroke-miterlimit:10;stroke-opacity:1;stroke-dasharray:none" />
            </g>
            <g
               transform="scale(1,-0.999996)"
               id="g106"
               style="stroke:#ff7f00;stroke-opacity:1">
              <path
                 d="m 1344.02,-2294.46 40.8,0"
                 inkscape:connector-curvature="0"
                 id="path108"
                 style="fill:none;stroke:#ff7f00;stroke-width:16.8003006;stroke-linecap:round;stroke-linejoin:round;stroke-miterlimit:10;stroke-opacity:1;stroke-dasharray:none" />
            </g>
            <g
               transform="scale(1,-0.999996)"
               id="g110"
               style="stroke:#ff7f00;stroke-opacity:1">
              <path
                 d="m 1303.22,-2623.27 81.6,0"
                 inkscape:connector-curvature="0"
                 id="path112"
                 style="fill:none;stroke:#ff7f00;stroke-width:16.8003006;stroke-linecap:round;stroke-linejoin:round;stroke-miterlimit:10;stroke-opacity:1;stroke-dasharray:none" />
            </g>
            <g
               transform="scale(1,-0.999996)"
               id="g114"
               style="stroke:#ff7f00;stroke-opacity:1">
              <path
                 d="m 1344.02,-2949.67 40.8,0"
                 inkscape:connector-curvature="0"
                 id="path116"
                 style="fill:none;stroke:#ff7f00;stroke-width:16.8003006;stroke-linecap:round;stroke-linejoin:round;stroke-miterlimit:10;stroke-opacity:1;stroke-dasharray:none" />
            </g>
            <g
               transform="scale(1,-0.999996)"
               id="g118"
               style="stroke:#ff7f00;stroke-opacity:1">
              <path
                 d="m 1303.22,-3278.48 81.6,0"
                 inkscape:connector-curvature="0"
                 id="path120"
                 style="fill:none;stroke:#ff7f00;stroke-width:16.8003006;stroke-linecap:round;stroke-linejoin:round;stroke-miterlimit:10;stroke-opacity:1;stroke-dasharray:none" />
            </g>
            <g
               transform="scale(1,-0.999996)"
               id="g122"
               style="stroke:#ff7f00;stroke-opacity:1">
              <path
                 d="m 1344.02,-3604.88 40.8,0"
                 inkscape:connector-curvature="0"
                 id="path124"
                 style="fill:none;stroke:#ff7f00;stroke-width:16.8003006;stroke-linecap:round;stroke-linejoin:round;stroke-miterlimit:10;stroke-opacity:1;stroke-dasharray:none" />
            </g>
            <g
               transform="scale(1,-0.999996)"
               id="g126"
               style="stroke:#ff7f00;stroke-opacity:1">
              <path
                 d="m 1303.22,-3933.69 81.6,0"
                 inkscape:connector-curvature="0"
                 id="path128"
                 style="fill:none;stroke:#ff7f00;stroke-width:16.8003006;stroke-linecap:round;stroke-linejoin:round;stroke-miterlimit:10;stroke-opacity:1;stroke-dasharray:none" />
            </g>
            <g
               transform="scale(1,-0.999996)"
               id="g130"
               style="stroke:#ff7f00;stroke-opacity:1">
              <path
                 d="m 1344.02,-4260.09 40.8,0"
                 inkscape:connector-curvature="0"
                 id="path132"
                 style="fill:none;stroke:#ff7f00;stroke-width:16.8003006;stroke-linecap:round;stroke-linejoin:round;stroke-miterlimit:10;stroke-opacity:1;stroke-dasharray:none" />
            </g>
            <g
               transform="scale(1,-0.999996)"
               id="g134"
               style="stroke:#ff7f00;stroke-opacity:1">
              <path
                 d="m 1303.22,-4588.9 81.6,0"
                 inkscape:connector-curvature="0"
                 id="path136"
                 style="fill:none;stroke:#ff7f00;stroke-width:16.8003006;stroke-linecap:round;stroke-linejoin:round;stroke-miterlimit:10;stroke-opacity:1;stroke-dasharray:none" />
            </g>
            <g
               transform="scale(1,-0.999996)"
               id="g138"
               style="stroke:#ff7f00;stroke-opacity:1">
              <path
                 d="m 1344.02,-4915.31 40.8,0"
                 inkscape:connector-curvature="0"
                 id="path140"
                 style="fill:none;stroke:#ff7f00;stroke-width:16.8003006;stroke-linecap:round;stroke-linejoin:round;stroke-miterlimit:10;stroke-opacity:1;stroke-dasharray:none" />
            </g>
            <g
               transform="scale(1,-0.999996)"
               id="g142"
               style="stroke:#ff7f00;stroke-opacity:1">
              <path
                 d="m 1303.22,-5244.11 81.6,0"
                 inkscape:connector-curvature="0"
                 id="path144"
                 style="fill:none;stroke:#ff7f00;stroke-width:16.8003006;stroke-linecap:round;stroke-linejoin:round;stroke-miterlimit:10;stroke-opacity:1;stroke-dasharray:none" />
            </g>
            <g
               transform="scale(1,-0.999996)"
               id="g146"
               style="stroke:#ff7f00;stroke-opacity:1">
              <path
                 d="m 1384.82,-984.039 0,-4260.071"
                 inkscape:connector-curvature="0"
                 id="path148"
                 style="fill:none;stroke:#ff7f00;stroke-width:16.8003006;stroke-linecap:round;stroke-linejoin:round;stroke-miterlimit:10;stroke-opacity:1;stroke-dasharray:none" />
            </g>
          </g>
        </g>
        <g
           id="g150"
           style="stroke:#ff7f00;stroke-opacity:1">
          <g
             clip-path="url(#clipPath154)"
             id="g152"
             style="stroke:#ff7f00;stroke-opacity:1">
            <g
               transform="scale(1,-0.999996)"
               id="g158"
               style="stroke:#ff7f00;stroke-opacity:1">
              <path
                 d="m 2124.04,-2721.67 2.4,9.6 2.4,31.2 2.4,24 2.4,4.8 2.4,40.8 2.4,50.41 2.4,45.6 2.4,57.59 2.4,62.41 2.4,43.2 2.4,38.4 2.4,55.2 2.4,43.2 2.4,40.8 2.4,38.4 2.4,40.8 2.4,33.6 2.4,26.4 2.4,28.8 2.4,19.2 2.4,21.6 2.4,24 2.4,4.81 2.4,9.6 2.4,24 2.4,24 2.4,12 2.4,14.4 0,38.4 2.4,4.8 2.4,2.4 2.4,14.4 2.4,16.8 2.4,14.4 2.4,12 2.4,7.2 2.4,4.8 2.4,-7.2 2.4,12 2.4,12 2.4,12 2.4,9.6 2.4,4.8 2.4,9.6 2.4,2.4 2.4,-19.2 2.4,-4.8 2.4,12 2.4,14.4 2.4,7.2 2.4,-2.4 2.4,7.2 2.4,21.6 2.4,9.6 2.4,-16.8 2.4,12 2.4,2.4 2.4,4.8 2.4,12 2.4,2.4 2.4,-4.8 2.4,14.4 2.4,2.4 2.4,-2.4 2.4,9.6 2.4,2.4 2.4,-2.4 2.4,2.4 2.4,0 2.4,24 2.4,-2.4 2.4,-9.6 2.4,7.2 2.4,-2.4 2.4,0 2.4,12 2.4,2.4 2.4,-9.6 2.4,-4.8 2.4,14.4 2.4,0 2.4,-2.4 2.4,-2.4 2.4,0 2.4,2.4 2.4,4.8 2.4,2.4 2.4,2.4 2.4,19.2 2.4,-7.2 2.4,-7.2 2.4,2.4 2.4,0 2.4,-7.2 2.4,14.4 2.4,12 2.4,-2.4 2.4,-14.4 2.4,-7.2 2.4,-2.4 2.4,2.4 2.4,-2.4 2.4,0 2.4,4.8 2.4,9.6 0,-4.8 2.4,-7.2 2.4,-2.4 2.4,7.2 2.4,2.4 2.4,-4.8 2.4,-4.8 2.4,-7.2 2.4,7.2 2.4,2.4 2.4,-9.6 2.4,4.8 2.4,-2.4 2.4,-7.2 2.4,2.4 2.4,7.2 2.4,24 2.4,-16.8 2.4,-2.4 2.4,7.2 2.4,-7.2 2.4,-2.4 2.4,4.8 2.4,4.8 2.4,7.2 2.4,7.2 2.4,7.2 2.4,-21.6 2.4,4.8 2.4,0 2.4,7.2 2.4,-2.4 2.4,-4.8 2.4,7.2 2.4,0 2.4,-9.6 2.4,-4.8 2.4,12 2.4,9.6 2.4,-12 2.4,-12 2.4,2.4 2.4,9.6 2.4,0 2.4,-16.8 2.4,7.2 2.4,-7.2 2.4,9.6 2.4,9.6 2.4,-2.4 2.4,-9.6 2.4,-4.8 2.4,12 2.4,-4.8 2.4,4.8 2.4,-9.6 2.4,12 2.4,2.4 2.4,-2.4 2.4,2.4 2.4,7.2 2.4,2.4 2.4,-16.8 2.4,12 4.8,0 2.41,-9.6 2.39,9.6 2.4,-4.8 2.4,-4.8 2.4,12 2.41,4.8 2.39,-7.2 2.4,-2.4 2.4,2.4 2.4,-2.4 2.41,-2.4 2.39,-2.4 2.4,-2.4 2.4,-7.2 2.4,2.4 2.41,7.2 2.39,-21.6 2.41,-2.4 2.39,9.6 2.4,-16.8 2.41,0 2.39,7.2 2.41,-7.2 2.39,-9.6 2.4,9.6 2.41,-14.4 2.39,-4.8 2.41,7.2 2.39,4.8 2.4,-9.6 2.41,-7.2 2.39,-4.8 2.41,-4.8 2.39,-2.4 2.41,0 2.4,-4.8 2.39,12 2.41,0 2.39,-2.4 2.41,-16.8 2.39,7.2 2.4,9.6 7.21,0 2.39,16.8 2.41,2.4 2.4,-12 2.39,4.8 2.41,-9.6 2.39,14.4 2.41,2.4 2.4,-7.2 2.39,0 2.41,4.8 2.39,-9.6 2.41,14.4 2.4,-9.6 2.39,2.4 2.41,-4.8 2.39,-2.4 2.41,7.2 2.4,-7.2 2.4,2.4 2.4,9.6 2.39,-16.8 2.41,2.4 2.4,14.4 2.4,-16.8 2.4,0 2.39,4.8 2.41,0 2.4,-9.6 2.4,-4.8 2.4,-2.4 2.39,-4.8 2.41,2.4 2.4,-7.2 2.4,0 2.4,2.4 2.4,-9.6 4.8,0 2.4,-7.2 2.4,-7.2 2.4,0 2.4,-4.8 2.4,4.8 2.4,-7.2 0,-2.4 2.4,-7.2 2.4,-9.6 2.4,0 2.4,2.4 2.4,7.2 2.4,-4.8 2.4,-14.4 2.4,-4.8 2.4,21.6 2.4,-7.2 2.4,-4.8 2.4,2.4 2.4,4.8 2.4,-12 2.4,-7.2 2.4,2.4 2.4,7.2 2.4,2.4 2.4,-7.2 2.4,-9.6 2.4,-4.8 2.4,12 2.4,-16.8 2.4,-7.2 2.4,9.6 2.4,-9.6 2.4,-7.2 2.4,2.4 2.4,2.4 2.4,2.4 2.4,-2.4 2.4,-7.2 2.4,-26.4 2.4,9.6 2.4,7.2 2.4,4.8 2.4,2.4 2.4,0 2.4,2.4 2.4,0 2.4,-2.4 2.4,-7.2 2.4,-2.4 2.4,-7.2 2.4,0 2.4,-7.2 2.4,4.8 2.4,2.4 2.4,-4.8 2.4,-12 2.4,9.6 2.4,0 2.4,-14.4 2.4,9.6 2.4,9.6 2.4,-12 2.4,19.2 2.4,-7.2 2.4,-24 2.4,9.6 2.4,-4.8 2.4,0 2.4,12 2.4,2.4 2.4,-9.6 2.4,0 2.4,2.4 2.4,2.4 2.4,-14.4 2.4,0 2.4,7.2 2.4,9.6 2.4,-12 2.4,2.4 2.4,-4.8 2.4,-4.8 2.4,9.6 0,4.8 2.4,-4.8 2.4,-2.4 2.4,4.8 2.4,-4.8 2.4,2.4 2.4,2.4 2.4,-12 2.4,2.4 2.4,2.4 2.4,2.4 2.4,7.2 2.4,2.4 2.4,-7.2 2.4,16.8 2.4,-21.6 2.4,0 2.4,9.6 2.4,-7.2 2.4,-4.8 2.4,-7.2 2.4,2.4 2.4,0 2.4,-2.4 2.4,2.4 2.4,-2.4 2.4,-14.4 2.4,0 2.4,2.4 2.4,0 2.4,-4.8 2.4,14.4 2.4,-4.8 2.4,-16.8 2.4,0 2.4,-9.6 2.4,-12 2.4,-7.2 2.4,-7.2 2.4,-4.8 2.4,-2.4 2.4,16.8 2.4,-19.2 2.4,-9.6 2.4,14.4 2.4,-9.6 2.4,2.4 2.4,-4.8 2.4,-4.8 2.4,7.2 2.4,7.2 2.4,-14.4 2.4,-14.41 2.4,-4.79 2.4,2.4 2.4,16.8 2.4,-16.8 2.4,0 2.4,-21.61 2.4,2.41 2.4,-7.2 2.4,16.79 2.4,12 2.4,-12 2.4,-24 2.4,-12 2.4,7.2 2.4,7.21 2.4,-4.8 2.4,2.39 2.4,-7.19 2.4,7.19 2.4,-16.8 2.4,-4.79 2.4,0 2.4,2.4 2.4,-2.4 2.4,2.4 0,7.19 2.4,0 2.4,-7.19 2.4,-9.61 2.4,-14.39 2.4,16.8 2.4,-2.41 2.4,9.61 2.4,-7.2 2.4,19.2 2.41,-16.81 2.39,0 2.4,-14.39 2.4,9.59 2.4,9.61 2.41,2.39 2.39,2.41 2.4,-7.2 2.4,-9.6 2.4,4.8 2.41,2.39 2.39,0 2.4,12 2.4,-2.39 2.4,7.2 2.41,0 2.39,-2.4 2.41,7.2 2.39,4.8 2.4,9.59 2.41,2.41 2.39,-7.2 2.41,0 2.39,-2.4 2.4,-16.81 2.41,19.21 2.39,-9.6 2.41,-19.2 2.39,4.79 2.41,14.41 2.4,9.6 2.39,-19.21 2.41,2.41 2.39,4.79 2.41,-2.39 2.4,-14.4 2.39,-21.6 2.41,-9.61 2.39,9.61 2.41,9.6 2.4,-7.21 2.39,9.61 2.41,12 2.39,-16.81 2.41,16.81 2.4,7.19 2.4,-16.8 2.4,-19.2 2.39,2.41 2.41,4.79 2.4,2.41 2.4,-14.41 2.4,-14.39 2.39,7.19 2.41,4.81 2.4,-12 2.4,-24.01 2.4,-26.4 2.39,-9.6 2.41,-2.4 2.4,26.4 2.4,12 2.4,24.01 2.4,4.8 2.4,0 2.4,-7.21 2.4,2.41 0,4.8 2.4,2.39 2.4,7.2 2.4,0 2.39,-2.39 2.41,0 2.4,-4.81 2.4,2.41 2.4,-16.8 2.39,-7.21 2.41,26.41 2.4,-4.81 2.4,0 2.4,-16.8 2.4,9.61 2.4,2.39 2.4,4.8 4.8,0 2.4,2.41 2.4,2.4 2.4,7.19 2.4,0 2.4,-14.39 2.4,-4.8 2.4,-4.81 2.4,12 2.4,-12 2.4,2.4 2.4,7.21 2.4,21.59 2.4,-26.39 2.4,-19.2 2.4,2.39 2.4,12 2.4,-4.8 2.4,0 2.4,4.8 2.4,-4.8 2.4,-14.4 2.4,-7.19 2.4,4.79 2.4,-4.79 2.4,-12 2.4,-16.81 2.4,4.8 2.4,4.8 2.4,-26.4 2.4,0 2.4,-26.4 2.4,19.2 2.4,-21.6 2.4,4.8 2.4,-7.2 2.4,-9.6 2.4,0 2.4,4.8 2.4,-7.2 2.4,-16.8 2.4,0 2.4,14.4 2.4,-7.2 2.4,-9.6 2.4,12 2.4,-2.4 2.4,24 2.4,-4.8 2.4,-2.4 2.4,-16.8 2.4,12 2.4,2.4 2.4,-19.2 2.4,16.8 2.4,0 2.4,4.8 2.4,-7.2 2.4,4.8 2.4,-4.8 0,-4.8 2.4,7.2 2.4,4.8 2.4,-9.6 2.4,-7.2 2.4,4.8 2.4,2.4 2.4,-4.8 2.4,0 2.4,4.8 2.4,-4.8 2.4,16.8 2.4,-2.4 2.4,-7.2 2.4,9.6 2.4,-12 2.4,12 7.2,0 2.4,-12 2.4,2.4 2.4,-4.8 2.4,0 2.4,14.4 2.4,4.8 2.4,-9.6 2.4,-12 2.4,-7.2 2.4,9.6 2.4,2.4 2.4,-12 2.4,2.4 2.4,12 2.4,-14.4 2.4,-2.4 2.4,-16.8 2.4,28.8 2.4,-19.2 2.4,0 2.4,2.4 2.4,4.8 2.4,-12 2.4,-12 2.4,7.2 2.4,-9.6 2.4,-14.4 2.4,-7.2 2.4,-2.4 2.4,-9.6 2.4,-7.2 2.4,0 2.4,-21.6 2.4,-9.6 2.4,-12 2.4,-9.6 2.4,-26.4 2.4,-33.6 2.4,-19.2 2.4,9.6 2.4,-16.8 2.4,4.8 2.4,24 2.4,21.6 2.4,-12 2.4,4.8 2.4,4.8 2.4,-7.2 2.4,14.4 2.4,-16.8 2.4,-12 2.4,2.4 2.4,-14.4 2.4,-4.8 2.4,0 2.4,7.2 2.4,4.8 2.4,2.4 0,4.8 2.4,-2.4 2.4,-7.2 2.4,-7.2 2.4,9.6 2.4,14.4 2.4,-2.4 2.4,28.8 2.4,-12 2.4,-16.8 2.4,-2.4 2.4,7.2 2.4,-4.8 2.4,12 2.4,-14.4 2.41,2.4 2.39,-4.8 2.4,19.2 2.4,-9.6 2.4,-2.4 2.41,7.2 2.39,-12 2.4,4.8 2.4,0 2.4,-14.4 2.41,7.2 2.39,12 2.4,-19.2 2.4,-14.4 2.4,7.2 2.41,14.4 2.39,-2.4 2.41,-9.6 2.39,7.2 2.4,4.8 2.41,-12 2.39,-7.2 2.41,9.6 2.39,4.8 2.4,-14.4 2.41,-16.8 2.39,7.2 2.41,-9.6 2.39,-7.2 2.41,14.4 2.39,0 2.4,2.4 2.41,-4.8 2.39,12 2.41,-28.8"
                 inkscape:connector-curvature="0"
                 id="path160"
                 style="fill:none;stroke:#ff7f00;stroke-width:7.20011997;stroke-linecap:round;stroke-linejoin:round;stroke-miterlimit:10;stroke-opacity:1;stroke-dasharray:none" />
            </g>
            <g
               transform="scale(1,-0.999996)"
               id="g162"
               style="stroke:#ff7f00;stroke-opacity:1">
              <path
                 d="m 3782.47,-2337.66 2.39,-21.6 2.4,-14.4 2.41,-16.8 2.39,-26.4 2.41,7.2 2.39,7.2 2.4,-2.4 2.41,24 2.39,-7.2 2.41,2.4 2.39,21.6 2.41,-7.2 2.4,14.4 2.39,-2.4 2.41,0 2.39,12 4.81,0 2.39,-4.8 2.41,-12 2.39,2.4 2.41,4.8 2.4,-2.4 2.39,4.8 2.41,2.4 2.39,-9.6 2.41,-7.2 2.4,-12 0,-14.4 2.4,0 2.4,-7.2 2.39,4.8 2.41,-4.8 2.4,-28.8 2.4,24 2.4,0 2.39,-36 2.41,45.6 2.4,-9.6 2.4,-21.6 2.4,33.6 2.39,-4.8 2.41,-36 2.4,-2.4 2.4,-2.4 2.4,-28.81 2.4,19.21 2.4,4.79 2.4,-7.19 2.4,-16.81 2.4,0 2.4,-4.79 2.4,-2.4 2.4,-19.2 2.4,2.39 2.4,-14.39 2.4,-14.41 2.4,-19.2 2.4,-21.6 2.4,-7.2 2.4,-14.4 2.4,-33.6 2.4,-40.8 2.4,-52.8 2.4,-38.4 2.4,-26.4 2.4,-40.8 2.4,-45.6 2.4,-19.2 2.4,2.4 2.4,12 2.4,43.2 2.4,52.8 2.4,31.2 2.4,48 2.4,50.4 2.4,40.8 2.4,26.4 2.4,-12 2.4,26.41 2.4,43.19 2.4,-14.39 2.4,16.8 2.4,-2.41 2.4,0 2.4,7.2 2.4,2.41 2.4,0 2.4,2.39 2.4,-12 2.4,-7.19 2.4,-14.4 2.4,12 2.4,14.4 2.4,-26.4 2.4,-12 2.4,14.4 2.4,-26.41 2.4,4.8 2.4,-7.2 2.4,-16.8 2.4,-74.4 2.4,-72 2.4,-100.8 2.4,-38.4 2.4,40.8 0,76.8 2.4,96 2.4,43.2 2.4,16.8 2.4,14.41 2.4,7.2 2.4,2.39 2.4,4.8 2.4,14.41 2.4,-9.6 2.4,16.8 2.4,-28.8 2.4,12 2.4,4.8 2.4,-12 2.4,-9.61 2.4,0 2.4,-24 2.4,7.2 2.4,-16.8 2.4,0 2.4,-9.6 2.4,-19.2 2.4,-4.8 2.4,-19.2 2.4,-4.8 2.4,-19.2 2.4,19.2 2.4,-2.4 2.4,14.4 2.4,-4.8 2.4,24 2.4,-24 2.4,-21.6 2.4,2.4 2.4,28.8 2.4,-14.4 2.4,-26.4 2.4,14.4 2.4,-16.8 2.4,2.4 2.4,0 2.4,2.4 2.4,-9.6 2.4,-7.2 2.4,-28.8 2.4,-21.6 2.4,-24 2.4,-69.6 2.4,-76.8 2.4,-79.2 2.4,-76.8 2.4,-24 2.4,19.2 2.4,52.8 2.4,84 2.4,50.4 2.4,52.8 2.4,31.2 2.4,4.8 2.4,14.4 2.4,7.2 2.4,4.8 2.4,-7.2 2.4,-24 2.4,9.6 2.4,12 2.4,2.4 2.4,-16.8 2.4,0 2.4,-7.2 2.4,4.8 2.4,-9.6 2.4,4.8 2.4,4.8 2.4,-4.8 2.4,-4.8 2.4,7.2 0,-16.8 2.4,14.4 2.4,-4.8 2.4,4.8 2.4,-12 2.4,-2.4 2.4,0 2.4,7.2 2.4,0 2.4,-9.6 2.4,-12 2.4,-7.2 2.4,0 2.4,14.4 2.4,-24 2.4,0 2.4,14.4 2.4,-14.4 2.4,21.6 2.4,-19.2 2.4,4.8 2.4,7.2 2.4,-7.2 2.4,-4.8 2.4,-2.4 2.4,9.6 2.4,-9.6 2.4,-4.8 2.4,-40.8 2.4,-7.2 2.4,-14.4 2.41,-52.8 2.39,-52.8 2.4,-88.8 2.4,-81.61 2.4,-120 2.41,-120 2.39,-50.4 2.4,9.6 2.4,108 2.4,134.4 2.41,120.01 2.39,72 2.4,81.6 2.4,38.4 2.4,33.6 2.41,0 2.39,-7.2 2.41,9.6 2.39,-4.8 2.4,21.6 2.41,-12 2.39,2.4 2.41,-19.2 2.39,-12 2.4,-14.4 2.41,0 2.39,2.4 2.41,-14.4 2.39,-14.4 2.4,-7.2 2.41,-16.8 2.39,9.6 2.41,0 2.39,-16.8 2.41,-9.6 2.4,-28.8 2.39,-12 2.41,-28.8 2.39,-60 2.41,-28.8 2.4,-60.01 2.39,24 2.41,40.81 2.39,21.59 2.41,48 2.4,14.41 0,12 2.4,-2.4 2.4,-2.4 2.39,-7.2 2.41,-4.8 2.4,-4.81 2.4,-4.8 2.4,4.8 2.39,12 2.41,24 2.4,-7.19 2.4,2.4 2.4,-16.8 2.39,4.8 2.41,-21.6 2.4,7.2 2.4,14.4 2.4,-2.4 2.4,-9.6 2.4,-2.4 2.39,-9.61 2.41,12.01 2.4,4.79 2.4,4.81 2.4,-4.81 2.39,-14.39 2.41,7.2 2.4,4.8 2.4,0 2.4,2.39 2.39,-2.39 2.41,-4.8 2.4,0 2.4,-12 2.4,7.19 2.4,12 2.4,-2.39 2.4,14.39 2.4,-14.39 2.4,-7.2 2.4,-4.8 2.4,12 2.4,9.6 2.4,-16.8 2.4,7.2 2.4,0 2.4,-9.61 2.4,-4.8 2.4,-4.79 2.4,-16.8 2.4,-4.8 2.4,0 2.4,9.6 2.4,-12 2.4,-2.41 2.4,4.81 2.4,-28.81 2.4,14.41 2.4,16.79 2.4,-16.79 2.4,-16.8 2.4,31.2 2.4,-2.4 2.4,-14.41 2.4,12 2.4,7.2 2.4,-21.59 2.4,12 2.4,0 2.4,4.8 2.4,-9.6 2.4,-4.81 2.4,-12 2.4,14.41 2.4,7.2 2.4,-9.61 2.4,-7.19 2.4,4.8 0,-9.61 2.4,-7.19 2.4,7.19 2.4,9.61 2.4,-7.21 2.4,-9.59 4.8,0 2.4,-9.61 2.4,0 2.4,16.8 2.4,-21.6 2.4,4.8 2.4,-4.8 2.4,-4.79 2.4,-2.41 2.4,4.8 2.4,7.2 2.4,-33.59 2.4,-2.41 2.4,-14.4 2.4,0 2.4,-26.4 2.4,-76.8 2.4,-110.4 2.4,-208.8 2.4,-141.61 2.4,-69.6 2.4,79.2 2.4,204.01 2.4,127.2 2.4,93.6 2.4,64.8 2.4,24 2.4,14.4 2.4,0 2.4,12 2.4,16.8 2.4,4.8 2.4,0 2.4,-7.2 2.4,7.2 2.4,0 2.4,2.4 2.4,2.4 2.4,-12 2.4,0 2.4,-21.6 2.4,31.2 2.4,-16.8 2.4,16.8 2.4,-16.8 2.4,-21.6 2.4,31.2 2.4,-9.6 2.4,9.6 2.4,-12 2.4,-9.6 2.4,-12 2.4,-4.8 2.4,31.2 2.4,-31.2 2.4,0 2.4,-2.4 2.4,7.2 2.4,-12 2.4,-7.2 2.4,7.2 2.4,4.8 2.4,-12 2.4,9.6 2.4,7.2 2.4,-9.6 2.4,9.6 2.4,-16.8 2.4,-4.8 2.4,9.6 2.4,-24 0,16.8 2.4,9.6 2.4,-14.4 2.4,9.6 2.4,4.8 2.4,-16.8 2.4,-9.6 2.4,-14.4 2.4,21.6 2.4,2.4 2.4,-19.2 2.4,9.6 2.4,-9.6 2.4,-7.2 2.4,2.4 2.4,-9.6 2.4,-4.8 2.4,-4.8 2.4,-12 2.4,21.6 2.4,-9.6 2.4,-2.4 2.4,-14.4 2.4,4.8 2.4,-12 2.4,24 2.4,-19.2 2.4,33.6 2.4,12 2.4,-14.4 2.4,43.2 2.4,-28.8 2.4,36 2.4,14.4 2.4,-2.4 2.4,-26.4 2.41,2.4 2.39,-12 2.4,12 2.4,-2.4 2.4,-4.8 2.41,0 2.39,-19.2 2.4,-4.8 2.4,4.8 2.4,12 2.41,7.2 2.39,-14.4 2.4,2.4 2.4,12 2.4,-12 2.41,-33.6 2.39,7.2 2.41,-26.4 2.39,-52.8 2.4,-57.6 2.4,-50.4 2.4,-57.6 2.41,-38.4 2.39,7.2 2.4,33.6 2.4,24 2.4,28.8 2.41,4.8 2.39,2.4 2.41,0 2.39,-7.2 2.4,-21.6 2.41,-14.4 2.39,-24 2.41,-72 2.39,-67.2 2.4,-98.41 2.41,-96 2.39,-182.4 2.41,-232.81 2.39,-220.8 2.4,-177.6 0,-91.2 2.41,55.2 2.39,146.4 2.41,158.4 2.39,192.01 2.41,117.6 2.4,72 2.39,86.4 2.41,9.6 2.39,21.6 2.41,-16.8 2.4,-24 2.39,-36 2.41,-21.6 2.39,-26.4 2.41,-45.6 2.4,-16.8 2.39,-24 2.41,-43.2 2.39,-12 2.41,-2.4 2.4,0 2.4,31.2 2.4,45.6 2.39,31.2 2.41,62.4 2.4,69.6 2.4,72 2.4,55.2 2.39,43.2 2.41,48 2.4,26.41 2.4,40.8 2.4,14.4 2.39,7.19 2.41,45.61 2.4,12 2.4,12 2.4,19.2 2.4,21.6 2.4,14.4 2.4,-19.2 2.4,21.6 2.4,19.2 2.4,-21.6 2.4,19.2 2.4,24 2.4,-14.4 2.4,14.4 2.4,14.4 2.4,9.6 2.4,2.4 2.4,0 2.4,-7.2 2.4,-4.8 2.4,-7.2 2.4,16.8 2.4,2.4 2.4,-9.6 2.4,-7.2 2.4,14.4 2.4,21.6 2.4,-26.4 2.4,-9.6 2.4,26.4 2.4,-24 2.4,4.8 2.4,7.2 2.4,-2.4 2.4,2.4 2.4,0 2.4,-9.6 2.4,-4.8 2.4,-4.8 2.4,7.2 2.4,2.4 2.4,-2.4 2.4,-2.4 0,-9.6 2.4,31.2 2.4,-21.6 2.4,-28.8 2.4,21.6 2.4,-9.6 2.4,9.6 2.4,-7.2 2.4,2.4 2.4,9.6 2.4,0 2.4,-19.2 2.4,-31.2 2.4,7.2 2.4,21.6 2.4,-31.2 2.4,-21.6 2.4,31.2 2.4,2.4 2.4,-9.6 2.4,7.2 2.4,0 2.4,-14.4 2.4,-12 2.4,0 2.4,12 2.4,-4.8 2.4,-16.8 2.4,0 2.4,4.8 2.4,-7.2 2.4,21.6 2.4,-26.4 2.4,-16.8 2.4,9.6 2.4,-31.2 2.4,26.4 2.4,-4.8 2.4,-9.6 2.4,4.8 2.4,-21.6 2.4,14.4 2.4,-36.01 2.4,-33.59 2.4,38.4 2.4,19.19 2.4,-16.79 2.4,-38.4 2.4,7.19 2.4,19.21 2.4,-2.4 2.4,4.8 2.4,-2.4 2.4,-9.6 2.4,2.39 2.4,-16.79 2.4,36 2.4,-7.21 2.4,-45.59 2.4,-2.41 2.4,0 2.4,-7.19 2.4,12 2.4,-12 2.4,-7.2 2.4,-12 2.4,-4.8 2.4,7.19 2.4,-2.39 2.4,-33.61 2.4,4.81 2.4,33.6 2.4,-24.01 2.4,-12 2.4,2.41 2.4,-33.61 2.4,-7.2 0,4.8 2.4,-2.4 2.4,14.41 2.4,-7.2 2.4,2.39 2.4,40.81 2.4,-12 2.4,12 2.4,31.19 2.4,7.2 2.4,-16.79 2.4,12 2.4,-28.8 2.4,0 2.4,-9.61 2.4,-16.8 2.4,19.2 2.4,-4.79 2.4,-7.21 2.4,14.41 2.4,-7.2 2.4,-2.41 2.4,16.8 2.4,-14.39 2.4,4.79 2.4,-9.59 2.4,14.39 2.4,2.41 2.4,-2.41 2.4,-48 2.4,2.41 2.4,0 2.4,21.59 2.4,16.8 2.4,-24 2.4,-7.19 2.4,9.59 2.4,0 2.4,7.21 2.4,-31.21 2.4,9.6 2.4,4.81 2.4,7.19 2.4,-14.39 2.4,-9.61 2.4,0 2.4,-19.2 2.4,0 2.4,9.6"
                 inkscape:connector-curvature="0"
                 id="path164"
                 style="fill:none;stroke:#ff7f00;stroke-width:12.88693916;stroke-linecap:round;stroke-linejoin:round;stroke-miterlimit:10;stroke-opacity:1;stroke-dasharray:none"
                 clip-path="none" />
            </g>
            <g
               transform="scale(1,-0.999996)"
               id="g166"
               style="stroke:#ff7f00;stroke-opacity:1">
              <path
                 d="m 5438.49,-3787.29 2.4,19.21 2.4,2.39 2.4,-28.8 2.4,4.8 2.4,-21.6 2.4,-4.8 2.4,9.6 2.4,2.4 2.4,12 2.41,2.4 2.39,0 2.4,-9.6 2.4,-7.2 2.4,14.4 2.41,0 2.39,-2.4 2.4,16.8 2.4,-31.2 2.4,9.6 2.41,2.4 2.39,-16.8 2.41,4.8 2.39,-12 2.4,-7.2 2.41,16.8 2.39,-4.8 2.41,2.4 2.39,-7.2 2.4,26.4 0,-28.8 2.41,2.4 2.39,4.8 4.8,0 2.4,4.8 2.41,-16.8 2.39,-7.2 2.41,2.4 2.39,7.2 2.41,-2.4 2.4,0 2.39,-9.6 2.41,-16.8 2.39,16.8 2.41,4.8 2.4,-9.6 2.39,2.4 2.41,-4.8 2.39,14.4 2.41,-14.4 2.4,-9.6 2.39,0 2.41,14.4 2.39,-12 2.41,-9.6 2.4,28.8 2.4,0 2.4,-7.2 2.39,16.8 2.41,-36 2.39,0 2.41,-14.4 2.4,9.6 2.39,0 2.41,4.8 2.39,-7.2 2.41,-7.2 2.4,16.8 2.39,-36 2.41,38.4 2.39,-36 2.41,4.8 2.4,0 2.4,7.2 2.4,7.2 2.39,-12 2.41,-19.2 2.4,26.4 2.4,-19.2 2.4,16.8 2.39,-19.2 2.41,7.2 2.4,24 2.4,2.4 2.4,-7.2 2.4,-16.8 2.4,4.8 2.4,-12 2.4,-9.6 2.4,4.8 2.4,-14.4 2.4,19.2 2.4,7.2 2.4,0 2.4,-19.2 2.4,16.8 2.4,-21.6 2.4,-12 2.4,21.6 2.4,-2.4 2.4,-4.8 2.4,14.4 2.4,7.2 2.4,7.2 2.4,-4.8 2.4,-9.6 2.4,0 0,-21.6 2.4,-7.2 2.4,7.2 2.4,-7.2 2.4,-4.8 2.4,2.4 2.4,-4.8 2.4,12 2.4,-16.8 2.4,2.4 2.4,-12 2.4,-9.6 2.4,9.6 2.4,12 2.4,-9.6 2.4,-9.6 2.4,-19.2 2.4,12 2.4,16.8 2.4,-36 2.4,7.2 2.4,4.8 2.4,0 2.4,16.8 2.4,-24 2.4,-12 2.4,12 2.4,-7.2 2.4,19.2 2.4,-26.4 2.4,-24 2.4,16.8 2.4,-16.8 2.4,9.6 2.4,-2.4 2.4,-4.8 2.4,7.2 2.4,-9.6 2.4,9.6 2.4,-19.2 2.4,-24 2.4,21.6 2.4,28.8 2.4,-45.6 2.4,31.2 2.4,-24 2.4,2.4 2.4,-4.8 2.4,0 2.4,-9.6 2.4,9.6 2.4,2.4 2.4,-9.6 2.4,-7.2 2.4,21.6 2.4,-16.8 2.4,-21.6 2.4,21.6 2.4,-16.8 2.4,12 2.4,9.6 2.4,-9.6 2.4,2.4 2.4,-16.8 2.4,12 2.4,2.4 2.4,-4.8 2.4,16.8 2.4,-52.8 2.4,43.2 2.4,-19.2 2.4,2.4 2.4,21.6 2.4,-7.2 2.4,-16.8 2.4,-16.8 2.4,26.4 0,-7.2 2.4,4.8 2.4,-9.6 2.4,-4.8 2.4,7.2 2.4,12 2.4,2.4 2.4,-40.8 2.4,26.4 2.4,0 2.4,-7.2 2.4,9.6 2.4,-21.6 2.4,0 2.4,14.4 2.4,-19.2 2.4,45.6 2.4,-33.6 2.4,4.8 2.4,9.6 2.4,-16.8 2.4,9.6 2.4,-16.8 2.4,16.8 2.4,-24 2.4,19.2 2.4,2.4 2.4,-16.8 2.4,4.8 2.4,7.2 2.4,4.8 2.4,-16.8 2.4,-16.8 2.4,19.2 2.4,4.8 2.4,-14.4 2.4,2.4 2.4,2.4 2.4,4.8 2.4,-2.4 2.4,4.8 2.4,-24 2.4,9.6 2.4,4.8 2.4,-24 2.4,21.6 2.4,28.8 2.4,-67.2 2.4,16.8 2.4,-2.4 2.4,0 2.4,-7.2 2.4,-16.8 2.4,16.8 2.4,4.8 2.4,-19.2 2.4,24 2.4,-14.4 2.4,-16.8 2.4,26.4 2.4,-16.8 2.4,-24 2.4,31.2 2.41,-12 2.39,12 2.4,-14.4 2.4,-16.8 2.4,7.2 2.41,7.2 2.39,-9.6 2.4,-2.4 2.4,-16.8 4.8,0 2.4,12 2.41,2.4 2.39,-7.2 2.4,-24.01 0,4.81 2.4,19.2 2.4,-2.4 2.41,-14.4 2.39,4.79 2.4,-2.39 4.8,0 2.41,-12 2.39,2.39 2.4,4.81 2.4,7.19 2.4,-4.79 2.41,-2.4 2.39,14.4 2.41,0 2.39,-9.6 2.4,-26.4 2.41,33.6 2.39,7.2 2.41,-38.4 2.39,21.6 2.4,-12 2.41,16.79 2.39,-33.59 2.41,-4.8 2.39,21.6 2.4,7.2 2.41,-7.2 2.39,0 2.41,12 2.39,-4.8"
                 inkscape:connector-curvature="0"
                 id="path168"
                 style="fill:none;stroke:#ff7f00;stroke-width:7.20011997;stroke-linecap:round;stroke-linejoin:round;stroke-miterlimit:10;stroke-opacity:1;stroke-dasharray:none" />
            </g>
          </g>
        </g>
        <g
           id="g170"
           style="stroke:#ff7f00;stroke-opacity:1">
          <g
             clip-path="url(#clipPath174)"
             id="g172"
             style="stroke:#ff7f00;stroke-opacity:1">
            <g
               transform="scale(10,10)"
               id="g178"
               style="stroke:#ff7f00;stroke-opacity:1">
              <text
                 transform="matrix(0,0.999992,1,0,48.241,247.205)"
                 id="text180"
                 style="stroke:#ff7f00;stroke-opacity:1">
                <tspan
                   x="0 5.5200977 16.800316 22.320414 33.600632 44.880848 54.96104 59.521137 65.041237 75.121429 80.641533 87.361664 98.641884 104.16198 115.4422 120.9623"
                   y="0"
                   id="tspan182"
                   style="font-size:2.01604009px;font-variant:normal;font-weight:normal;writing-mode:lr-tb;fill:#000000;fill-opacity:1;fill-rule:nonzero;stroke:#ff7f00;stroke-opacity:1;font-family:Arial Black;-inkscape-font-specification:Arial">Intensity (a.u.)</tspan>
              </text>
              <text
                 transform="matrix(1.00001,0,0,-1,324.727,39.8426)"
                 id="text184"
                 style="stroke:#ff7f00;stroke-opacity:1">
                <tspan
                   x="0 19.920477 31.20075 41.521011 52.801285 57.361378 68.641655 79.921928 91.202202 96.722328 108.0026 113.52273 120.24287 131.52315 148.56352"
                   y="0"
                   id="tspan186"
                   style="font-size:2.0160501px;font-variant:normal;font-weight:normal;writing-mode:lr-tb;fill:#000000;fill-opacity:1;fill-rule:nonzero;stroke:#ff7f00;stroke-opacity:1;font-family:Arial Black;-inkscape-font-specification:Arial">Wavelength (nm)</tspan>
              </text>
            </g>
            <path
               d="m 5688.12,5448.09 1382.43,0 0,247.203 -1382.43,0 0,-247.203 z"
               inkscape:connector-curvature="0"
               id="path188"
               style="fill:#ffffff;fill-opacity:1;fill-rule:evenodd;stroke:#ff7f00;stroke-opacity:1" />
            <g
               transform="scale(1,-0.999996)"
               id="g190"
               style="stroke:#ff7f00;stroke-opacity:1">
              <path
                 d="m 5688.1,-5695.32 1382.42,0 0,247.21 -1382.42,0 0,-247.21 z"
                 inkscape:connector-curvature="0"
                 id="path192"
                 style="fill:none;stroke:#ff7f00;stroke-width:7.20011997;stroke-linecap:round;stroke-linejoin:round;stroke-miterlimit:10;stroke-opacity:1;stroke-dasharray:none" />
            </g>
            <g
               transform="scale(1,-0.999996)"
               id="g194"
               style="stroke:#ff7f00;stroke-opacity:1">
              <path
                 d="m 5772.1,-5563.32 451.21,0"
                 inkscape:connector-curvature="0"
                 id="path196"
                 style="fill:none;stroke:#ff7f00;stroke-width:7.20011997;stroke-linecap:round;stroke-linejoin:round;stroke-miterlimit:10;stroke-opacity:1;stroke-dasharray:none" />
            </g>
            <g
               transform="scale(10,10)"
               id="g198"
               style="stroke:#ff7f00;stroke-opacity:1">
              <text
                 transform="matrix(1.00001,0,0,-1,627.85313,549.609)"
                 id="text200"
                 style="stroke:#ff7f00;stroke-opacity:1">
                <tspan
                   x="0 5.5201263 16.8004 22.320526 33.6008 44.881073 54.961319 59.521439 65.041565"
                   y="0"
                   id="tspan202"
                   style="font-size:2.0160501px;font-variant:normal;font-weight:normal;writing-mode:lr-tb;fill:#000000;fill-opacity:1;fill-rule:nonzero;stroke:#ff7f00;stroke-opacity:1;font-family:Arial Black;-inkscape-font-specification:Arial">Intensity</tspan>
              </text>
            </g>
          </g>
        </g>
      </g>
    </g>
  </g>
</svg>
