<?xml version="1.0" encoding="utf-8"?>
<!-- Generator: Adobe Illustrator 16.0.0, SVG Export Plug-In . SVG Version: 6.00 Build 0)  -->
<!DOCTYPE svg PUBLIC "-//W3C//DTD SVG 1.1//EN" "http://www.w3.org/Graphics/SVG/1.1/DTD/svg11.dtd">
<svg version="1.1" id="Layer_1" xmlns="http://www.w3.org/2000/svg" xmlns:xlink="http://www.w3.org/1999/xlink" x="0px" y="0px"
	 width="344.805px" height="344.798px" viewBox="61.995 0.802 344.805 344.798"
	 enable-background="new 61.995 0.802 344.805 344.798" xml:space="preserve">
<g>
	<path d="M351.172,345.6H117.619c-30.672,0-55.624-24.952-55.624-55.627V56.426c0-30.672,24.952-55.625,55.624-55.625h233.553
		c30.672,0,55.628,24.952,55.628,55.625v233.546C406.8,320.647,381.844,345.6,351.172,345.6z M117.619,32.88
		c-12.984,0-23.546,10.562-23.546,23.546v233.546c0,12.987,10.562,23.549,23.546,23.549h233.553c12.984,0,23.55-10.564,23.55-23.549
		V56.426c0-12.984-10.569-23.546-23.55-23.546H117.619z"/>
</g>
<polygon points="336.996,241.06 302.252,275.81 234.391,207.955 166.539,275.81 131.785,241.06 199.644,173.197 131.785,105.349 
	166.539,70.596 234.391,138.451 302.252,70.596 336.996,105.349 269.15,173.197 "/>
</svg>
