<?xml version="1.0" encoding="utf-8"?>
<!-- Generator: Adobe Illustrator 16.0.0, SVG Export Plug-In . SVG Version: 6.00 Build 0)  -->
<!DOCTYPE svg PUBLIC "-//W3C//DTD SVG 1.1//EN" "http://www.w3.org/Graphics/SVG/1.1/DTD/svg11.dtd">
<svg version="1.1"
	 id="Layer_1" xmlns:dc="http://purl.org/dc/elements/1.1/" xmlns:cc="http://creativecommons.org/ns#" xmlns:rdf="http://www.w3.org/1999/02/22-rdf-syntax-ns#" xmlns:svg="http://www.w3.org/2000/svg"
	 xmlns="http://www.w3.org/2000/svg" xmlns:xlink="http://www.w3.org/1999/xlink" x="0px" y="0px" width="259.285px"
	 height="259.333px" viewBox="104.357 43.134 259.285 259.333" enable-background="new 104.357 43.134 259.285 259.333"
	 xml:space="preserve">
<g transform="translate(0,-952.36216)">
	<path d="M251.322,995.496c-2.623,0-5.104,1.192-6.743,3.24l-78.327,97.909c-0.599,0.563-1.115,1.208-1.532,1.917l-58.381,72.975
		c-0.046,0.061-0.091,0.121-0.135,0.184c-1.457,1.853-2.093,4.221-1.762,6.554v67.783c0,4.771,3.869,8.64,8.64,8.641h136.661
		c3.581,0.632,7.176-1.047,8.99-4.198l43.801-73.002c0.41-0.531,0.756-1.109,1.033-1.721l58.846-98.078
		c0.805-1.342,1.229-2.877,1.229-4.441v-69.12c0-4.772-3.868-8.64-8.64-8.64L251.322,995.496L251.322,995.496z M255.48,1012.776
		h84.268l-48.924,81.533H190.249L255.48,1012.776L255.48,1012.776z M346.363,1035.328v35.532l-42.006,70.011v-35.532
		L346.363,1035.328L346.363,1035.328z M176.424,1111.589h104.031l-34.02,56.707H131.058L176.424,1111.589z M287.077,1134.141v35.532
		l-27.114,45.191v-35.532L287.077,1134.141L287.077,1134.141z M121.723,1185.576h120.96v51.84h-120.96V1185.576L121.723,1185.576z"
		/>
</g>
</svg>
