<?xml version="1.0" encoding="utf-8"?>
<!-- Generator: Adobe Illustrator 16.0.0, SVG Export Plug-In . SVG Version: 6.00 Build 0)  -->
<!DOCTYPE svg PUBLIC "-//W3C//DTD SVG 1.1//EN" "http://www.w3.org/Graphics/SVG/1.1/DTD/svg11.dtd">
<svg version="1.1"
	 id="Layer_1" xmlns:dc="http://purl.org/dc/elements/1.1/" xmlns:cc="http://creativecommons.org/ns#" xmlns:rdf="http://www.w3.org/1999/02/22-rdf-syntax-ns#" xmlns:svg="http://www.w3.org/2000/svg"
	 xmlns="http://www.w3.org/2000/svg" xmlns:xlink="http://www.w3.org/1999/xlink" x="0px" y="0px" width="259.438px"
	 height="293.888px" viewBox="104.281 25.856 259.438 293.888" enable-background="new 104.281 25.856 259.438 293.888"
	 xml:space="preserve">
<g transform="translate(0,-952.36216)">
	<path d="M147.604,978.226L147.604,978.226c-4.771,0-8.639,3.868-8.64,8.64v103.68c-0.068,4.772,3.746,8.695,8.518,8.763
		c4.771,0.067,8.695-3.746,8.762-8.518c0.001-0.082,0.001-0.163,0-0.245v-95.04h120.959v60.48c0.001,4.771,3.869,8.64,8.641,8.64
		h60.48v190.08H156.244v-95.04c0.067-4.771-3.746-8.694-8.518-8.762c-4.772-0.067-8.695,3.746-8.762,8.518
		c-0.001,0.081-0.001,0.163,0,0.244v103.681c0,4.771,3.868,8.639,8.64,8.64h205.922c2.756,0.463,5.564-0.435,7.54-2.409
		c0.064-0.063,0.128-0.126,0.19-0.19c1.924-1.967,2.795-4.731,2.349-7.445v-205.963c0-2.291-0.911-4.488-2.53-6.109l-69.121-69.12
		c-1.619-1.621-3.816-2.531-6.108-2.531h-138.24L147.604,978.226z M294.484,1007.73l39.615,39.622h-39.615V1007.73z
		 M182.076,1081.825c-4.772,0.001-8.64,3.87-8.639,8.643c0,2.333,0.945,4.567,2.618,6.194l19.812,19.811h-82.823
		c-11.684-0.166-11.684,17.445,0,17.28h82.823l-19.812,19.812c-3.44,3.308-3.547,8.778-0.239,12.218
		c3.308,3.44,8.777,3.547,12.217,0.24c0.082-0.078,0.162-0.158,0.24-0.24l34.56-34.561c3.373-3.374,3.373-8.843,0-12.217
		l-34.56-34.56C186.646,1082.769,184.41,1081.825,182.076,1081.825L182.076,1081.825z"/>
</g>
</svg>
