<?xml version="1.0" encoding="utf-8"?>
<!-- Generator: Adobe Illustrator 16.0.0, SVG Export Plug-In . SVG Version: 6.00 Build 0)  -->
<!DOCTYPE svg PUBLIC "-//W3C//DTD SVG 1.1//EN" "http://www.w3.org/Graphics/SVG/1.1/DTD/svg11.dtd">
<svg version="1.1" id="Layer_1" xmlns="http://www.w3.org/2000/svg" xmlns:xlink="http://www.w3.org/1999/xlink" x="0px" y="0px"
	 width="157.111px" height="340.381px" viewBox="155.448 2.306 157.111 340.381"
	 enable-background="new 155.448 2.306 157.111 340.381" xml:space="preserve">
<g>
	<path d="M312.42,288.116l-25.852-85.813h14.653c1.866,0,3.387-1.521,3.387-3.421c0-1.865-1.521-3.421-3.387-3.421H284.53
		L252.251,88.394c5.53-5.149,8.984-12.511,8.984-20.667c0-10.575-5.84-19.837-14.444-24.676V5.727c0-1.901-1.521-3.421-3.422-3.421
		h-19.042c-1.901,0-3.422,1.521-3.422,3.421v36.392c-9.643,4.493-16.313,14.273-16.313,25.609c0,9.021,4.216,17.038,10.817,22.222
		l-31.762,105.512h-17.142c-1.901,0-3.421,1.555-3.421,3.421c0,1.901,1.521,3.421,3.421,3.421h15.068l-25.782,85.709
		c-0.034,0.034-0.069,0.069-0.034,0.104c-0.069,0.173-0.069,0.346-0.104,0.483c-0.068,0.139-0.068,0.312-0.068,0.483l-0.139,50.182
		c0,1.693,1.244,3.146,2.938,3.388c0.173,0,0.311,0.034,0.484,0.034c1.485,0,2.834-1.003,3.282-2.488l12.752-45.136l0.069-0.207
		l28.132-92.553h26.715v8.641c0,1.9,1.521,3.421,3.388,3.421c1.9,0,3.421-1.521,3.421-3.421v-8.641h28.408l27.854,91.618
		c0,0.312,0.034,0.623,0.138,0.935l12.822,45.343c0.415,1.485,1.764,2.487,3.283,2.487c0.173,0,0.311-0.033,0.484-0.033
		c1.692-0.242,2.938-1.693,2.938-3.388l-0.174-49.075C312.593,289.533,312.627,288.808,312.42,288.116z M227.748,9.113h12.233
		v31.208c-2.246-0.588-4.631-0.898-7.05-0.898c-1.763,0-3.491,0.172-5.184,0.483V9.113L227.748,9.113z M211.436,67.727
		c0-11.854,9.644-21.496,21.497-21.496c11.854,0,21.496,9.642,21.496,21.496s-9.642,21.497-21.496,21.497
		C221.079,89.224,211.436,79.581,211.436,67.727z M162.36,314.451l0.035-20.392l5.185,1.937L162.36,314.451z M169.515,289.431
		l-6.325-2.386l25.505-84.741h7.292L169.515,289.431z M198.061,195.461h-7.292l30.655-101.848c2.177,0.968,4.527,1.693,6.946,2.108
		L198.061,195.461z M236.63,195.461v-8.64c0-1.9-1.521-3.422-3.421-3.422c-1.866,0-3.388,1.521-3.388,3.422v8.64h-24.606
		l28.858-95.005l28.892,95.005H236.63z M239.637,95.271c2.385-0.587,4.666-1.486,6.773-2.626l30.967,102.816h-7.293L239.637,95.271z
		 M272.192,202.304h7.258l25.506,84.674v0.067l-6.29,2.386v-0.035L272.192,202.304z M300.428,296.063v-0.067l5.149-1.937v0.035
		l0.068,20.355L300.428,296.063z"/>
	<polygon points="305.577,294.062 305.577,294.097 300.428,296.063 300.428,295.996 	"/>
	<path d="M232.929,80.096c-6.819,0-12.362-5.547-12.362-12.366c0-6.818,5.543-12.365,12.362-12.365s12.362,5.547,12.362,12.365
		C245.291,74.549,239.748,80.096,232.929,80.096z M232.929,62.191c-3.055,0-5.54,2.485-5.54,5.543s2.485,5.543,5.54,5.543
		c3.056,0,5.54-2.484,5.54-5.543S235.987,62.191,232.929,62.191z"/>
	<path d="M298.665,289.396v0.035l6.29-2.386v-0.067L298.665,289.396z"/>
</g>
</svg>
