<?xml version="1.0" encoding="utf-8"?>
<!-- Generator: Adobe Illustrator 16.0.0, SVG Export Plug-In . SVG Version: 6.00 Build 0)  -->
<!DOCTYPE svg PUBLIC "-//W3C//DTD SVG 1.1//EN" "http://www.w3.org/Graphics/SVG/1.1/DTD/svg11.dtd">
<svg version="1.1" id="Layer_1" xmlns="http://www.w3.org/2000/svg" xmlns:xlink="http://www.w3.org/1999/xlink" x="0px" y="0px"
	 width="313.113px" height="257.818px" viewBox="77.443 44.237 313.113 257.818"
	 enable-background="new 77.443 44.237 313.113 257.818" xml:space="preserve">
<path d="M390.557,136.857c0-0.345,0-0.345,0-0.691s0-0.346,0-0.691s0-0.346-0.346-0.691c0-0.346,0-0.346-0.346-0.691
	c0-0.346-0.346-0.346-0.346-0.691c0-0.345-0.346-0.345-0.346-0.691s-0.346-0.346-0.346-0.346l-0.345-0.346l-0.346-0.345
	c-0.346,0-0.346-0.346-0.691-0.346c-0.345,0-0.345-0.346-0.69-0.346s-0.346-0.346-0.691-0.346h-0.346h-0.346
	c-0.346,0-0.346,0-0.691,0s-0.346,0-0.691,0h-0.346h-32.141c0-0.691,0.346-1.037,0.346-1.728c0-22.118-17.971-40.089-40.09-40.089
	H210.154V68.774c0-13.479-11.06-24.538-24.538-24.538h-83.635c-13.479,0-24.538,11.059-24.538,24.538v26.957V270.26
	c0,6.912,2.419,13.479,6.221,18.662c0,0,0,0.346,0.346,0.346c5.875,7.948,15.206,12.787,25.574,12.787h202.521
	c22.119-0.346,34.906-18.662,39.398-35.598l0,0l39.053-127.18v-0.346c0-0.346,0-0.346,0-0.691c0-0.346,0-0.346,0-0.691
	C390.557,137.549,390.557,137.203,390.557,136.857C390.557,137.203,390.557,136.857,390.557,136.857z M337.68,128.563
	c0,0.691,0,1.037,0.346,1.728H135.504h-0.346c-0.345,0-0.345,0-0.691,0s-0.346,0-0.691,0s-0.346,0-0.691,0.346
	c-0.346,0-0.346,0-0.691,0.346c-0.346,0-0.346,0.346-0.691,0.346c-0.345,0-0.345,0.346-0.345,0.346
	c-0.346,0-0.346,0.345-0.691,0.345l-0.346,0.346c0,0.346-0.345,0.346-0.345,0.691c0,0-0.346,0.345-0.346,0.691
	s-0.346,0.346-0.346,0.691s-0.346,0.346-0.346,0.691v0.346L90.921,255.053V102.298h220.493
	C325.93,102.298,337.68,114.048,337.68,128.563z M101.981,57.715h83.635c5.875,0,10.713,4.838,10.713,10.713v20.045H91.267V68.429
	C91.267,62.554,95.76,57.715,101.981,57.715z M311.414,287.885H109.238c-4.838,0-9.331-2.074-12.441-5.184l43.891-138.586h233.971
	l-36.634,118.195c0,0,0,0,0,0.346l0,0C336.643,268.531,330.076,287.885,311.414,287.885z"/>
</svg>
