<?xml version="1.0" encoding="utf-8"?>
<!-- Generator: Adobe Illustrator 16.0.0, SVG Export Plug-In . SVG Version: 6.00 Build 0)  -->
<!DOCTYPE svg PUBLIC "-//W3C//DTD SVG 1.1//EN" "http://www.w3.org/Graphics/SVG/1.1/DTD/svg11.dtd">
<svg version="1.1" id="Layer_1" xmlns="http://www.w3.org/2000/svg" xmlns:xlink="http://www.w3.org/1999/xlink" x="0px" y="0px"
	 width="265.359px" height="265.662px" viewBox="36.5 18.5 265.359 265.662" enable-background="new 36.5 18.5 265.359 265.662"
	 xml:space="preserve">
<g>
	<path d="M301.021,259.434h-33.064c-29.731,0-33.558-45.309-36.629-81.715c-1.092-12.91-2.422-28.662-4.955-33.464
		c-2.729,4.871-4.137,21.728-5.186,34.36c-3.002,36.007-6.736,80.818-36.253,80.818c-26.478,0-30.812-56.793-34.045-137.026
		c-1.21-30.079-2.701-67.067-7.452-74.863c-4.757,7.798-6.25,44.8-7.466,74.892c-3.236,80.218-7.574,136.998-34.036,136.998H61.951
		v-7.285h39.992c20.105,0,23.393-81.353,25.354-129.958c2.527-62.595,4.334-82.829,16.144-82.829
		c11.804,0,13.613,20.227,16.134,82.796c1.959,48.619,5.235,129.988,25.363,129.988c21.419,0,25.13-44.558,27.588-74.043
		c2.258-27.112,3.505-42.045,13.939-42.045c10.056,0,11.289,14.613,13.531,41.143c2.519,29.846,6.325,74.947,27.963,74.947h33.063
		L301.021,259.434L301.021,259.434z"/>
</g>
<path d="M71.459,269.762h230.4v14.4h-244.8V39.361h14.4v201.6"/>
<path fill="none" d="M36.5,18.5"/>
</svg>
