<?xml version="1.0" encoding="utf-8"?>
<!-- Generator: Adobe Illustrator 16.0.0, SVG Export Plug-In . SVG Version: 6.00 Build 0)  -->
<!DOCTYPE svg PUBLIC "-//W3C//DTD SVG 1.1//EN" "http://www.w3.org/Graphics/SVG/1.1/DTD/svg11.dtd">
<svg version="1.1" id="Layer_1" xmlns="http://www.w3.org/2000/svg" xmlns:xlink="http://www.w3.org/1999/xlink" x="0px" y="0px"
	 width="230.4px" height="158.399px" viewBox="34.8 43.2 230.4 158.399" enable-background="new 34.8 43.2 230.4 158.399"
	 xml:space="preserve">
<g>
	<path d="M34.8,43.2V201.6h230.4V43.2H34.8z M188.4,81.6v-24H250.8v24H188.4z M250.8,91.2v24H188.4v-24H250.8z M178.8,81.6h-62.4
		v-24h62.4V81.6z M178.8,91.2v24h-62.4v-24H178.8z M106.8,115.2H49.2v-24h57.6V115.2z M106.8,124.8v24H49.2v-24H106.8z M116.4,124.8
		h62.4v24h-62.4V124.8z M178.8,158.4v28.8h-62.4v-28.8H178.8z M188.4,158.4H250.8v28.8H188.4V158.4z M188.4,148.8v-24H250.8v24
		H188.4z M106.8,57.6v24H49.2v-24H106.8z M49.2,158.4h57.6v28.8H49.2V158.4z"/>
</g>
</svg>
