<?xml version="1.0" encoding="utf-8"?>
<!-- Generator: Adobe Illustrator 16.0.0, SVG Export Plug-In . SVG Version: 6.00 Build 0)  -->
<!DOCTYPE svg PUBLIC "-//W3C//DTD SVG 1.1//EN" "http://www.w3.org/Graphics/SVG/1.1/DTD/svg11.dtd">
<svg version="1.1" id="Layer_1" xmlns="http://www.w3.org/2000/svg" xmlns:xlink="http://www.w3.org/1999/xlink" x="0px" y="0px"
	 width="316.806px" height="316.804px" viewBox="6.597 -12.604 316.806 316.804"
	 enable-background="new 6.597 -12.604 316.806 316.804" xml:space="preserve">
<path d="M319.181-8.381c-5.63-5.63-14.73-5.63-20.361,0l-63.259,63.259C216.063,39.715,191.625,30.6,165,30.6
	c-63.619,0-115.2,51.581-115.2,115.2c0,26.625,9.115,51.063,24.279,70.56l-63.26,63.261c-5.63,5.631-5.63,14.73,0,20.361
	c2.809,2.809,6.494,4.219,10.182,4.219c3.687,0,7.373-1.41,10.181-4.219l63.259-63.26C113.952,251.884,138.375,261,165,261
	c63.619,0,115.2-51.58,115.2-115.199c0-26.625-9.115-51.049-24.278-70.56l63.259-63.259C324.811,6.351,324.811-2.75,319.181-8.381z
	 M78.6,145.8c0-47.649,38.75-86.4,86.4-86.4c18.634,0,35.854,5.991,49.981,16.056L94.656,195.783
	C84.59,181.656,78.6,164.434,78.6,145.8z M251.4,145.8c0,47.648-38.751,86.4-86.399,86.4c-18.634,0-35.856-5.992-49.982-16.057
	L235.344,95.817C245.41,109.944,251.4,127.167,251.4,145.8z"/>
</svg>
